<svg width="512" height="512" viewBox="0 0 512 512" fill="none" xmlns="http://www.w3.org/2000/svg">
<rect width="512" height="512" fill="#153200"/>
<path fill-rule="evenodd" clip-rule="evenodd" d="M90.0058 254.592C90.0079 254.111 90.0108 253.643 90.0147 253.186C90.0147 253.655 90.0019 254.124 90.0058 254.592ZM421.988 254.592C421.99 254.264 421.992 253.935 421.993 253.607C421.993 253.467 421.993 253.326 421.993 253.186C421.997 253.643 421.986 254.111 421.988 254.592Z" fill="#8BCA5D"/>
<path fill-rule="evenodd" clip-rule="evenodd" d="M90.0058 254.592C90 255.903 90 257.308 90 258.813H90.0922C90.0461 257.408 90.0173 256 90.0058 254.592ZM100.848 236.423C91.2008 236.924 90.1329 239.537 90.0147 253.186C90.0108 253.643 90.0079 254.111 90.0058 254.592C90.0068 254.365 90.0046 254.14 90.0025 253.918C90.0002 253.671 90.0126 253.427 90.0147 253.186C90.1329 239.537 91.1958 236.923 100.848 236.423ZM421.901 258.813H421.993C421.993 258.106 421.995 257.42 421.997 256.757C422 255.49 422.003 254.301 421.993 253.186C421.875 239.47 420.787 236.898 411.004 236.416C420.782 236.898 421.875 239.471 421.993 253.186C421.997 253.643 421.986 254.111 421.988 254.592C421.976 256 421.947 257.408 421.901 258.813ZM358.004 236.305H337.222C337.921 240.523 338.274 244.8 338.274 249.093H358.844C358.844 244.808 358.562 240.537 358.004 236.305ZM174.774 236.305H153.992C153.434 240.537 153.152 244.808 153.152 249.093H173.721C173.721 244.8 174.075 240.523 174.774 236.305Z" fill="#8BCA5D"/>
<path d="M358.844 249.093C358.844 244.808 358.562 240.537 358.004 236.305C356.846 227.535 354.501 218.933 351.015 210.73C345.846 198.567 338.271 187.516 328.721 178.207C319.17 168.898 307.833 161.514 295.355 156.476C282.877 151.438 269.504 148.845 255.998 148.845C242.492 148.845 229.118 151.438 216.64 156.476C204.162 161.514 192.825 168.898 183.275 178.207C173.725 187.516 166.149 198.567 160.98 210.73C157.494 218.933 155.149 227.535 153.992 236.305C153.434 240.537 153.152 244.808 153.152 249.093H173.721C173.721 244.8 174.075 240.523 174.774 236.305C175.79 230.175 177.535 224.166 179.984 218.402C184.119 208.672 190.179 199.831 197.819 192.384C205.459 184.937 214.53 179.03 224.512 174.999C234.494 170.969 245.193 168.895 255.998 168.895C266.803 168.895 277.502 170.969 287.484 174.999C297.466 179.03 306.536 184.937 314.176 192.384C321.817 199.831 327.877 208.672 332.011 218.402C334.461 224.166 336.206 230.175 337.222 236.305C337.921 240.523 338.274 244.8 338.274 249.093H358.844Z" fill="#8BCA5D"/>
<path d="M358.844 249.093C358.844 244.808 358.562 240.537 358.004 236.305C356.846 227.535 354.501 218.933 351.015 210.73C345.846 198.567 338.271 187.516 328.721 178.207C319.17 168.898 307.833 161.514 295.355 156.476C282.877 151.438 269.504 148.845 255.998 148.845C242.492 148.845 229.118 151.438 216.64 156.476C204.162 161.514 192.825 168.898 183.275 178.207C173.725 187.516 166.149 198.567 160.98 210.73C157.494 218.933 155.149 227.535 153.992 236.305C153.434 240.537 153.152 244.808 153.152 249.093H173.721C173.721 244.8 174.075 240.523 174.774 236.305C175.79 230.175 177.535 224.166 179.984 218.402C184.119 208.672 190.179 199.831 197.819 192.384C205.459 184.937 214.53 179.03 224.512 174.999C234.494 170.969 245.193 168.895 255.998 168.895C266.803 168.895 277.502 170.969 287.484 174.999C297.466 179.03 306.536 184.937 314.176 192.384C321.817 199.831 327.877 208.672 332.011 218.402C334.461 224.166 336.206 230.175 337.222 236.305C337.921 240.523 338.274 244.8 338.274 249.093H358.844Z" fill="#8BCA5D"/>
<path d="M272.24 113.509C272.24 125.503 256.619 135.226 256.619 135.226C256.619 135.226 240.998 125.503 240.998 113.509C240.998 101.516 256.619 91.7931 256.619 91.7931C256.619 91.7931 272.24 101.516 272.24 113.509Z" fill="#9DD376" fill-opacity="0.5"/>
<path d="M342.223 140.482C336.193 150.868 317.775 151.522 317.775 151.522C317.775 151.522 309.136 135.336 315.167 124.949C321.198 114.562 339.615 113.909 339.615 113.909C339.615 113.909 348.255 130.095 342.223 140.482Z" fill="#9DD376" fill-opacity="0.5"/>
<path d="M389.264 198.628C378.818 204.624 362.539 196.034 362.539 196.034C362.539 196.034 363.197 177.721 373.643 171.724C384.088 165.727 400.367 174.317 400.367 174.317C400.367 174.317 399.709 192.631 389.264 198.628Z" fill="#9DD376" fill-opacity="0.5"/>
<path d="M139.598 171.724C150.044 177.721 150.701 196.034 150.701 196.034C150.701 196.034 134.423 204.624 123.977 198.628C113.531 192.631 112.874 174.317 112.874 174.317C112.874 174.317 129.152 165.727 139.598 171.724Z" fill="#9DD376" fill-opacity="0.5"/>
<path d="M198.076 124.949C204.106 135.336 195.467 151.522 195.467 151.522C195.467 151.522 177.05 150.868 171.019 140.482C164.988 130.095 173.627 113.909 173.627 113.909C173.627 113.909 192.044 114.562 198.076 124.949Z" fill="#9DD376" fill-opacity="0.5"/>
<path d="M90.0147 253.186C90.0108 253.643 90.0079 254.111 90.0058 254.592C90.0173 256 90.0461 257.408 90.0922 258.813C90.7563 279.063 95.0001 299.042 102.636 317.788C110.978 338.27 123.205 356.88 138.619 372.556C154.034 388.232 172.333 400.667 192.472 409.15C212.612 417.634 234.198 422 255.997 422C277.796 422 299.381 417.634 319.521 409.15C339.661 400.667 357.96 388.232 373.374 372.556C388.789 356.88 401.016 338.27 409.358 317.788C416.994 299.042 421.237 279.063 421.901 258.813C421.947 257.408 421.976 256 421.988 254.592C421.986 254.111 421.997 253.643 421.993 253.186C421.847 236.305 420.234 236.305 402.748 236.305H358.004C358.562 240.537 358.844 244.808 358.844 249.093H338.274C338.274 244.8 337.921 240.523 337.222 236.305H174.774C174.075 240.523 173.721 244.8 173.721 249.093H153.152C153.152 244.808 153.434 240.537 153.992 236.305H109.246C91.7598 236.305 90.1609 236.305 90.0147 253.186Z" fill="#8BCA5D"/>
</svg>
