<svg width="45" height="36" viewBox="0 0 45 36" fill="none" xmlns="http://www.w3.org/2000/svg">
<path d="M2.5875 13.5H42.4125C43.8398 13.5 45 12.3398 45 10.9125C45 10.3992 44.8453 9.9 44.5641 9.47812L39.2484 1.50469C38.6227 0.5625 37.575 0 36.443 0H8.55703C7.43203 0 6.37734 0.5625 5.75156 1.50469L0.435937 9.47109C0.154687 9.9 0 10.3992 0 10.9055C0 12.3398 1.16016 13.5 2.5875 13.5ZM4.5 15.75V27V32.625C4.5 34.4883 6.01172 36 7.875 36H23.625C25.4883 36 27 34.4883 27 32.625V27V15.75H22.5V27H9V15.75H4.5ZM36 15.75V33.75C36 34.9945 37.0055 36 38.25 36Cnan nan 40.5 34.9945 40.5 33.75V15.75H36Z" fill="#4B5563"/>
</svg>
