<svg width="41" height="36" viewBox="0 0 41 36" fill="none" xmlns="http://www.w3.org/2000/svg">
<path d="M17.8102 2.46796C18.2391 1.63828 17.9156 0.618746 17.093 0.189839C16.2703 -0.239067 15.2438 0.0843706 14.8148 0.907027L8.26875 13.5H2.25C1.00547 13.5 0 14.5055 0 15.75C0 16.9945 1.00547 18 2.25 18L5.89922 32.5898C6.39844 34.5937 8.19844 36 10.2656 36H30.2344C32.3016 36 34.1016 34.5937 34.6008 32.5898L38.25 18C39.4945 18 40.5 16.9945 40.5 15.75C40.5 14.5055 39.4945 13.5 38.25 13.5H32.2313L25.6852 0.907027C25.2563 0.0843706 24.2367 -0.239067 23.407 0.189839C22.5773 0.618746 22.2609 1.63828 22.6898 2.46796L28.4273 13.5H12.0727L17.8102 2.46796ZM13.5 21.375V28.125C13.5 28.7437 12.9937 29.25 12.375 29.25Cnan nan 11.25 28.7437 11.25 28.125V21.375C11.25 20.7562 11.7563 20.25 12.375 20.25Cnan nan 13.5 20.7562 13.5 21.375ZM20.25 20.25C20.8687 20.25 21.375 20.7562 21.375 21.375V28.125C21.375 28.7437 20.8687 29.25 20.25 29.25Cnan nan 19.125 28.7437 19.125 28.125V21.375C19.125 20.7562 19.6313 20.25 20.25 20.25ZM29.25 21.375V28.125C29.25 28.7437 28.7437 29.25 28.125 29.25Cnan nan 27 28.7437 27 28.125V21.375C27 20.7562 27.5063 20.25 28.125 20.25Cnan nan 29.25 20.7562 29.25 21.375Z" fill="#4B5563"/>
</svg>
