<svg width="41" height="36" viewBox="0 0 41 36" fill="none" xmlns="http://www.w3.org/2000/svg">
<path d="M38.5031 7.29844L34.4742 0.921094C34.1156 0.351562 33.4758 0 32.7937 0H7.70625C7.02422 0 6.38437 0.351562 6.02578 0.921094L1.98984 7.29844C-0.0914092 10.5891 1.75078 15.1664 5.63906 15.6938C5.92031 15.7289 6.20859 15.75 6.48984 15.75C8.325 15.75 9.95625 14.9484 11.0742 13.7109C12.1922 14.9484 13.8234 15.75 15.6586 15.75C17.4937 15.75 19.125 14.9484 20.243 13.7109C21.3609 14.9484 22.9922 15.75 24.8273 15.75C26.6695 15.75 28.2937 14.9484 29.4117 13.7109C30.5367 14.9484 32.1609 15.75 33.9961 15.75C34.2844 15.75 34.5656 15.7289 34.8469 15.6938C38.7492 15.1734 40.5984 10.5961 38.5102 7.29844H38.5031ZM35.1352 17.9227H35.1281C34.7555 17.9719 34.3758 18 33.9891 18C33.1172 18 32.2805 17.8664 31.5 17.6273V27H9V17.6203C8.2125 17.8664 7.36875 18 6.49687 18C6.11015 18 5.72343 17.9719 5.35078 17.9227H5.34375C5.05547 17.8805 4.77422 17.8312 4.5 17.7609V27V31.5C4.5 33.982 6.51797 36 9 36H31.5C33.982 36 36 33.982 36 31.5V27V17.7609C35.7187 17.8312 35.4375 17.8875 35.1352 17.9227Z" fill="#4B5563"/>
</svg>
