<svg width="41" height="36" viewBox="0 0 41 36" fill="none" xmlns="http://www.w3.org/2000/svg">
<path d="M0 1.6875C0 0.752344 0.752344 0 1.6875 0H4.88672C6.43359 0 7.80469 0.9 8.44453 2.25H37.343C39.1922 2.25 40.5422 4.00781 40.057 5.79375L37.1742 16.5023C36.5766 18.7102 34.5727 20.25 32.2875 20.25H12.0023L12.382 22.2539C12.5367 23.0484 13.2328 23.625 14.0414 23.625H34.3125C35.2477 23.625 36 24.3773 36 25.3125C36 26.2477 35.2477 27 34.3125 27H14.0414C11.6086 27 9.52031 25.2703 9.07031 22.8867L5.44219 3.83203C5.39297 3.56484 5.16094 3.375 4.88672 3.375H1.6875C0.752344 3.375 0 2.62266 0 1.6875ZM9 32.625C9 30.7623 10.5123 29.25 12.375 29.25C14.2377 29.25 15.75 30.7623 15.75 32.625C15.75 34.4877 14.2377 36 12.375 36C10.5123 36 9 34.4877 9 32.625ZM32.625 29.25C34.4877 29.25 36 30.7623 36 32.625C36 34.4877 34.4877 36 32.625 36C30.7623 36 29.25 34.4877 29.25 32.625C29.25 30.7623 30.7623 29.25 32.625 29.25Z" fill="#4B5563"/>
</svg>
